<svg width="415" height="179" viewBox="0 0 415 179" fill="none" xmlns="http://www.w3.org/2000/svg">
<path d="M212.93 51.3267H219.647V82.7769H212.93V80.6684C211.367 82.5111 209.125 83.4059 206.257 83.4059C203.388 83.4059 200.793 82.2808 198.692 79.9951C196.592 77.7006 195.559 74.8745 195.559 71.5434C195.559 68.2124 196.592 65.4306 198.692 63.1449C200.793 60.8504 203.3 59.6809 206.257 59.6809C209.214 59.6809 211.359 60.5757 212.93 62.4184V51.3179V51.3267ZM207.607 77.0273C209.178 77.0273 210.476 76.5311 211.456 75.5478C212.435 74.5644 212.93 73.2089 212.93 71.5523C212.93 69.8956 212.435 68.5401 211.456 67.5568C210.476 66.5734 209.17 66.0773 207.607 66.0773C206.045 66.0773 204.739 66.5734 203.759 67.5568C202.77 68.549 202.285 69.8956 202.285 71.5523C202.285 73.2089 202.779 74.5644 203.759 75.5478C204.747 76.54 206.045 77.0273 207.607 77.0273Z" fill="white"/>
<path d="M230.566 74.2452C231.325 76.3537 233.116 77.3902 235.941 77.3902C237.777 77.3902 239.207 76.8055 240.239 75.6804L245.615 78.7811C243.417 81.8818 240.151 83.4056 235.853 83.4056C232.093 83.4056 229.091 82.2805 226.814 80.0391C224.572 77.7889 223.46 74.9628 223.46 71.5431C223.46 68.1235 224.581 65.3417 226.77 63.0915C229.012 60.7969 231.872 59.6807 235.367 59.6807C238.633 59.6807 241.325 60.8058 243.47 63.0915C245.668 65.3417 246.736 68.1678 246.736 71.5431C246.736 72.4822 246.648 73.3858 246.471 74.2363H230.583L230.566 74.2452ZM240.063 69.2132C239.392 66.83 237.821 65.6606 235.314 65.6606C232.807 65.6606 231.104 66.83 230.433 69.2132H240.054H240.063Z" fill="white"/>
<path d="M252.552 79.9948C250.31 77.7003 249.198 74.9185 249.198 71.5431C249.198 68.1678 250.319 65.386 252.552 63.0915C254.838 60.7969 257.654 59.6807 261.061 59.6807C265.359 59.6807 269.208 61.9752 271.176 65.4303L265.315 68.8411C264.512 67.1755 263.073 66.3251 260.973 66.3251C258.06 66.3251 255.915 68.4778 255.915 71.5343C255.915 74.5907 258.06 76.7435 260.973 76.7435C263.073 76.7435 264.556 75.893 265.315 74.2275L271.176 77.594C269.208 81.1465 265.404 83.3879 261.061 83.3879C257.663 83.3879 254.838 82.2628 252.552 79.9771V79.9948Z" fill="white"/>
<path d="M284.152 83.4056C280.842 83.4056 278.017 82.2805 275.731 79.9948C273.445 77.7003 272.289 74.8742 272.289 71.5431C272.289 68.2121 273.454 65.4303 275.731 63.1446C278.017 60.8501 280.833 59.6807 284.152 59.6807C287.471 59.6807 290.286 60.8501 292.572 63.1446C294.858 65.4391 296.024 68.2209 296.024 71.5431C296.024 74.8653 294.858 77.7003 292.572 79.9948C290.286 82.2893 287.471 83.4056 284.152 83.4056ZM284.152 76.8498C285.626 76.8498 286.835 76.3537 287.824 75.3703C288.812 74.3869 289.298 73.1201 289.298 71.552C289.298 69.9839 288.803 68.717 287.824 67.7337C286.835 66.7414 285.626 66.2542 284.152 66.2542C282.678 66.2542 281.468 66.7503 280.48 67.7337C279.491 68.7259 279.006 69.9839 279.006 71.552C279.006 73.1201 279.5 74.3869 280.48 75.3703C281.468 76.3625 282.678 76.8498 284.152 76.8498Z" fill="white"/>
<path d="M316.069 51.3267H322.786V82.7769H316.069V80.6684C314.507 82.5111 312.265 83.4059 309.396 83.4059C306.527 83.4059 303.932 82.2808 301.832 79.9951C299.731 77.7006 298.698 74.8745 298.698 71.5434C298.698 68.2124 299.731 65.4306 301.832 63.1449C303.932 60.8504 306.439 59.6809 309.396 59.6809C312.353 59.6809 314.498 60.5757 316.069 62.4184V51.3179V51.3267ZM310.747 77.0273C312.318 77.0273 313.615 76.5311 314.595 75.5478C315.584 74.5555 316.069 73.2089 316.069 71.5523C316.069 69.8956 315.575 68.5401 314.595 67.5568C313.606 66.5645 312.309 66.0773 310.747 66.0773C309.184 66.0773 307.878 66.5734 306.898 67.5568C305.91 68.549 305.424 69.8956 305.424 71.5523C305.424 73.2089 305.918 74.5644 306.898 75.5478C307.887 76.54 309.184 77.0273 310.747 77.0273Z" fill="white"/>
<path d="M333.713 74.2452C334.472 76.3537 336.264 77.3902 339.088 77.3902C340.924 77.3902 342.354 76.8055 343.387 75.6804L348.762 78.7811C346.564 81.8818 343.298 83.4056 339 83.4056C335.24 83.4056 332.239 82.2805 329.961 80.0391C327.719 77.7889 326.607 74.9628 326.607 71.5431C326.607 68.1235 327.728 65.3417 329.917 63.0915C332.159 60.7969 335.019 59.6807 338.514 59.6807C341.78 59.6807 344.472 60.8058 346.617 63.0915C348.815 65.3417 349.883 68.1678 349.883 71.5431C349.883 72.4822 349.795 73.3858 349.618 74.2363H333.73L333.713 74.2452ZM343.201 69.2132C342.53 66.83 340.959 65.6606 338.453 65.6606C335.946 65.6606 334.242 66.83 333.571 69.2132H343.192H343.201Z" fill="white"/>
<path d="M369.7 51.3267H376.417V82.7769H369.7V80.6684C368.138 82.5111 365.896 83.4059 363.027 83.4059C360.159 83.4059 357.564 82.2808 355.463 79.9951C353.362 77.7006 352.329 74.8745 352.329 71.5434C352.329 68.2124 353.362 65.4306 355.463 63.1449C357.564 60.8504 360.07 59.6809 363.027 59.6809C365.984 59.6809 368.129 60.5757 369.7 62.4184V51.3179V51.3267ZM364.378 77.0273C365.949 77.0273 367.246 76.5311 368.226 75.5478C369.215 74.5555 369.7 73.2089 369.7 71.5523C369.7 69.8956 369.206 68.5401 368.226 67.5568C367.238 66.5645 365.94 66.0773 364.378 66.0773C362.815 66.0773 361.509 66.5734 360.529 67.5568C359.541 68.549 359.055 69.8956 359.055 71.5523C359.055 73.2089 359.55 74.5644 360.529 75.5478C361.518 76.54 362.815 77.0273 364.378 77.0273Z" fill="white"/>
<path d="M208.993 96.5174C206.221 96.2959 204.827 97.3236 204.827 99.6624H208.993V106.13H204.827V122.129H198.11V106.13H195.109V99.6624H198.11C198.11 93.1952 201.782 89.6426 208.984 90.0502V96.5174H208.993Z" fill="white"/>
<path d="M218.173 103.667C219.02 100.787 221.845 99.2192 224.89 99.2192V106.856C223.23 106.59 221.712 106.856 220.282 107.706C218.897 108.513 218.182 109.957 218.182 111.976V122.129H211.465V99.6622H218.182V103.658L218.173 103.667Z" fill="white"/>
<path d="M238.086 122.759C234.776 122.759 231.951 121.633 229.665 119.348C227.379 117.053 226.223 114.227 226.223 110.896C226.223 107.565 227.388 104.783 229.665 102.498C231.951 100.203 234.767 99.0337 238.086 99.0337C241.405 99.0337 244.22 100.203 246.506 102.498C248.792 104.792 249.958 107.574 249.958 110.896C249.958 114.218 248.792 117.053 246.506 119.348C244.22 121.642 241.405 122.759 238.086 122.759ZM238.086 116.203C239.56 116.203 240.769 115.707 241.758 114.723C242.746 113.731 243.232 112.473 243.232 110.905C243.232 109.337 242.737 108.07 241.758 107.087C240.769 106.094 239.56 105.607 238.086 105.607C236.612 105.607 235.402 106.103 234.414 107.087C233.425 108.079 232.94 109.337 232.94 110.905C232.94 112.473 233.434 113.74 234.414 114.723C235.402 115.716 236.612 116.203 238.086 116.203Z" fill="white"/>
<path d="M272.826 101.505C274.442 103.171 275.245 105.412 275.245 108.336V122.13H268.528V109.328C268.528 106.679 266.913 105.235 264.635 105.235C262.084 105.235 260.469 106.803 260.469 109.86V122.13H253.752V99.6627H260.469V101.771C261.811 99.9285 263.964 99.0337 266.868 99.0337C269.243 99.0337 271.255 99.8399 272.826 101.505Z" fill="white"/>
<path d="M292.969 106.139H288.361V114.094C288.361 115.893 289.703 116.203 292.969 116.025V122.138C288.714 122.59 285.757 122.183 284.107 120.925C282.447 119.622 281.644 117.372 281.644 114.094V106.139H278.061V99.6714H281.644V95.4012L288.361 93.3813V99.6714H292.969V106.139Z" fill="white"/>
<path d="M302.325 113.598C303.084 115.707 304.875 116.743 307.7 116.743C309.536 116.743 310.966 116.159 311.999 115.033L317.374 118.134C315.176 121.235 311.91 122.759 307.612 122.759C303.852 122.759 300.851 121.633 298.573 119.392C296.331 117.142 295.219 114.316 295.219 110.896C295.219 107.477 296.34 104.695 298.529 102.444C300.771 100.15 303.631 99.0337 307.126 99.0337C310.392 99.0337 313.084 100.159 315.229 102.444C317.427 104.695 318.495 107.521 318.495 110.896C318.495 111.835 318.407 112.739 318.23 113.589H302.342L302.325 113.598ZM311.822 108.566C311.151 106.183 309.58 105.014 307.073 105.014C304.567 105.014 302.863 106.183 302.192 108.566H311.813H311.822Z" fill="white"/>
<path d="M341.367 101.505C342.982 103.171 343.785 105.412 343.785 108.336V122.13H337.068V109.328C337.068 106.679 335.453 105.235 333.175 105.235C330.625 105.235 329.009 106.803 329.009 109.86V122.13H322.292V99.6627H329.009V101.771C330.351 99.9285 332.505 99.0337 335.409 99.0337C337.783 99.0337 339.795 99.8399 341.367 101.505Z" fill="white"/>
<path d="M364.641 90.6793H371.358V122.129H364.641V120.021C363.079 121.864 360.837 122.758 357.968 122.758C355.1 122.758 352.505 121.633 350.404 119.348C348.303 117.053 347.27 114.227 347.27 110.896C347.27 107.565 348.303 104.783 350.404 102.497C352.505 100.203 355.011 99.0335 357.968 99.0335C360.925 99.0335 363.07 99.9283 364.641 101.771V90.6704V90.6793ZM359.31 116.38C360.881 116.38 362.179 115.884 363.158 114.9C364.147 113.908 364.632 112.561 364.632 110.905C364.632 109.248 364.138 107.893 363.158 106.909C362.17 105.917 360.872 105.43 359.31 105.43C357.748 105.43 356.441 105.926 355.461 106.909C354.473 107.902 353.987 109.248 353.987 110.905C353.987 112.561 354.482 113.917 355.461 114.9C356.45 115.893 357.748 116.38 359.31 116.38Z" fill="white"/>
<path d="M96.2202 86.9851C85.6724 86.9585 77.1812 95.8177 77.7461 106.52C78.2581 116.212 86.4227 123.999 96.0967 124.034C103.705 124.07 110.246 119.481 113.097 112.907C114.085 110.639 114.633 108.141 114.633 105.51V96.6239H122.488V86.9851H114.633V68.4871C114.633 66.5912 115.895 64.8548 117.739 64.4738C120.264 63.96 122.488 65.8913 122.488 68.3276V71.2423L132.092 74.3696V68.3276C132.092 60.3189 125.154 53.9137 116.998 54.8439C110.113 55.6235 105.047 61.7363 105.047 68.6997V89.2619V105.306C105.047 107.131 104.588 108.956 103.555 110.471C101.834 112.987 99.1242 114.413 96.1849 114.413C93.8194 114.413 91.5951 113.492 89.918 111.809C88.241 110.125 87.323 107.893 87.323 105.518C87.323 102.099 89.2295 98.9804 92.5395 97.3769C93.6693 96.8276 94.8521 96.615 96.1055 96.6327" fill="white"/>
<path d="M96.2202 86.9851C85.6724 86.9585 77.1812 95.8177 77.7461 106.52C78.2581 116.212 86.4227 123.999 96.0967 124.034C103.705 124.07 110.246 119.481 113.097 112.907C114.085 110.639 114.633 108.141 114.633 105.51V96.6239H122.488V86.9851H114.633V68.4871C114.633 66.5912 115.895 64.8548 117.739 64.4738C120.264 63.96 122.488 65.8913 122.488 68.3276V71.2423L132.092 74.3696V68.3276C132.092 60.3189 125.154 53.9137 116.998 54.8439C110.113 55.6235 105.047 61.7363 105.047 68.6997V89.2619V105.306C105.047 107.131 104.588 108.956 103.555 110.471C101.834 112.987 99.1242 114.413 96.1849 114.413C93.8194 114.413 91.5951 113.492 89.918 111.809C88.241 110.125 87.323 107.893 87.323 105.518C87.323 102.099 89.2295 98.9804 92.5395 97.3769C93.6693 96.8276 94.8521 96.615 96.1055 96.6327" fill="white"/>
<path d="M379.707 89.7047H376.653V124.654H379.707V89.7047Z" fill="url(#paint0_linear_44_401)"/>
<path d="M69.4603 131.617H63.723C61.2428 131.617 59.2391 129.597 59.2391 127.117V96.8095C59.2391 92.7166 55.938 89.4032 51.8601 89.4032C55.938 89.4032 59.2391 86.0899 59.2391 81.9969V54.9764C59.2744 50.7151 60.7749 47.2157 67.7656 47.1892L74.668 36H62.5844C54.5875 36 48.0999 42.5026 48.0999 50.5291V71.3039C48.0999 77.8863 42.7863 83.2195 36.2281 83.2195C36.184 83.2195 36.131 83.2195 36.0869 83.2195V95.5692C36.131 95.5692 36.184 95.5692 36.2281 95.5692C42.7863 95.5692 48.0999 100.902 48.0999 107.485V128.26C48.0999 136.286 54.5787 142.789 62.5756 142.789H75.7096L69.4515 131.617H69.4603Z" fill="url(#paint1_linear_44_401)"/>
<path d="M142.589 131.617H148.326C150.806 131.617 152.81 129.597 152.81 127.117V96.8096C152.81 92.7166 156.111 89.4033 160.189 89.4033C156.111 89.4033 152.81 86.09 152.81 81.997V54.9765C152.775 50.7152 151.274 47.2158 144.283 47.1892L137.381 36.0001H149.465C157.462 36.0001 163.94 42.5027 163.94 50.5292V71.304C163.94 77.8863 169.254 83.2196 175.812 83.2196C175.856 83.2196 175.909 83.2196 175.953 83.2196V95.5693C175.909 95.5693 175.856 95.5693 175.812 95.5693C169.254 95.5693 163.94 100.903 163.94 107.485V128.26C163.94 136.286 157.462 142.789 149.465 142.789H136.331L142.589 131.617Z" fill="url(#paint2_linear_44_401)"/>
<defs>
<linearGradient id="paint0_linear_44_401" x1="36.0869" y1="82.9082" x2="390.567" y2="130.016" gradientUnits="userSpaceOnUse">
<stop stop-color="#E90356"/>
<stop offset="0.108473" stop-color="#F551B4"/>
<stop offset="0.292957" stop-color="#F551B4"/>
<stop offset="0.401102" stop-color="#D940F3"/>
<stop offset="0.765" stop-color="#C71AE3"/>
</linearGradient>
<linearGradient id="paint1_linear_44_401" x1="36.0869" y1="82.9082" x2="390.567" y2="130.016" gradientUnits="userSpaceOnUse">
<stop stop-color="#E90356"/>
<stop offset="0.108473" stop-color="#F551B4"/>
<stop offset="0.292957" stop-color="#F551B4"/>
<stop offset="0.401102" stop-color="#D940F3"/>
<stop offset="0.765" stop-color="#C71AE3"/>
</linearGradient>
<linearGradient id="paint2_linear_44_401" x1="36.0869" y1="82.9082" x2="390.567" y2="130.016" gradientUnits="userSpaceOnUse">
<stop stop-color="#E90356"/>
<stop offset="0.108473" stop-color="#F551B4"/>
<stop offset="0.292957" stop-color="#F551B4"/>
<stop offset="0.401102" stop-color="#D940F3"/>
<stop offset="0.765" stop-color="#C71AE3"/>
</linearGradient>
</defs>
</svg>
